{
	"asset":{
		"version":"2.0",
		"generator":"Created using the official Cinema 4D glTF Exporter 1.000x284978"
	},
	"bufferViews":[{
		"buffer":0,
		"byteOffset":0,
		"byteLength":456,
		"target":34963
	},
	{
		"buffer":0,
		"byteOffset":456,
		"byteLength":6912,
		"target":34962,
		"byteStride":32
	},
	{
		"buffer":1,
		"byteOffset":0,
		"byteLength":420,
		"target":34963
	},
	{
		"buffer":1,
		"byteOffset":420,
		"byteLength":6592,
		"target":34962,
		"byteStride":32
	},
	{
		"buffer":2,
		"byteOffset":0,
		"byteLength":1650,
		"target":34963
	},
	{
		"buffer":2,
		"byteOffset":1652,
		"byteLength":10336,
		"target":34962,
		"byteStride":32
	},
	{
		"buffer":3,
		"byteOffset":0,
		"byteLength":228,
		"target":34963
	},
	{
		"buffer":3,
		"byteOffset":228,
		"byteLength":1216,
		"target":34962,
		"byteStride":32
	},
	{
		"buffer":4,
		"byteOffset":0,
		"byteLength":17976,
		"target":34963
	},
	{
		"buffer":4,
		"byteOffset":17976,
		"byteLength":123072,
		"target":34962,
		"byteStride":32
	},
	{
		"buffer":5,
		"byteOffset":0,
		"byteLength":72,
		"target":34963
	},
	{
		"buffer":5,
		"byteOffset":72,
		"byteLength":512,
		"target":34962,
		"byteStride":32
	},
	{
		"buffer":6,
		"byteOffset":0,
		"byteLength":22890,
		"target":34963
	},
	{
		"buffer":6,
		"byteOffset":22892,
		"byteLength":150752,
		"target":34962,
		"byteStride":32
	},
	{
		"buffer":7,
		"byteOffset":0,
		"byteLength":1080,
		"target":34963
	},
	{
		"buffer":7,
		"byteOffset":1080,
		"byteLength":7936,
		"target":34962,
		"byteStride":32
	},
	{
		"buffer":8,
		"byteOffset":0,
		"byteLength":1080,
		"target":34963
	},
	{
		"buffer":8,
		"byteOffset":1080,
		"byteLength":7936,
		"target":34962,
		"byteStride":32
	},
	{
		"buffer":9,
		"byteOffset":0,
		"byteLength":60,
		"target":34963
	},
	{
		"buffer":9,
		"byteOffset":60,
		"byteLength":640,
		"target":34962,
		"byteStride":32
	},
	{
		"buffer":10,
		"byteOffset":0,
		"byteLength":60,
		"target":34963
	},
	{
		"buffer":10,
		"byteOffset":60,
		"byteLength":640,
		"target":34962,
		"byteStride":32
	},
	{
		"buffer":11,
		"byteOffset":0,
		"byteLength":180,
		"target":34963
	},
	{
		"buffer":11,
		"byteOffset":180,
		"byteLength":1536,
		"target":34962,
		"byteStride":32
	},
	{
		"buffer":12,
		"byteOffset":0,
		"byteLength":180,
		"target":34963
	},
	{
		"buffer":12,
		"byteOffset":180,
		"byteLength":1536,
		"target":34962,
		"byteStride":32
	},
	{
		"buffer":13,
		"byteOffset":0,
		"byteLength":72,
		"target":34963
	},
	{
		"buffer":13,
		"byteOffset":72,
		"byteLength":768,
		"target":34962,
		"byteStride":32
	},
	{
		"buffer":14,
		"byteOffset":0,
		"byteLength":72,
		"target":34963
	},
	{
		"buffer":14,
		"byteOffset":72,
		"byteLength":768,
		"target":34962,
		"byteStride":32
	}],
	"scenes":[{
		"nodes":[0]
	}],
	"nodes":[{
		"name":"case_closed-m.obj.1",
		"translation":[0.0,
		-2.2024827003479006,
		0.0],
		"rotation":[0.0,
		0.0,
		0.0,
		-1.0],
		"scale":[1.0,
		1.0,
		1.0],
		"children":[1,
		14,
		19]
	},
	{
		"name":"case_tape",
		"translation":[8.560792922973633,
		8.795806884765625,
		0.01319566648453474],
		"rotation":[0.0,
		0.0,
		0.0,
		-1.0],
		"scale":[1.0,
		1.0,
		1.0],
		"children":[2,
		5]
	},
	{
		"name":"case",
		"children":[3,
		4]
	},
	{
		"name":"Case_b_Case_b_elem",
		"mesh":0
	},
	{
		"name":"Case_t_Case_t_elem",
		"translation":[0.011923166923224926,
		-6.2591071128845219,
		-3.7497217655181886],
		"rotation":[0.0,
		0.0,
		0.0,
		-1.0],
		"scale":[1.0,
		1.0,
		1.0],
		"mesh":1
	},
	{
		"name":"Tape",
		"children":[6,
		12,
		13]
	},
	{
		"name":"Tape",
		"children":[7,
		8,
		9,
		10,
		11]
	},
	{
		"name":"Tape-Mat.1",
		"mesh":2
	},
	{
		"name":"Tape-sticker",
		"mesh":3
	},
	{
		"name":"Tape-crome",
		"mesh":4
	},
	{
		"name":"Tape-glass",
		"mesh":5
	},
	{
		"name":"Tape-black_plastic",
		"mesh":6
	},
	{
		"name":"Wheel_left",
		"translation":[0.12736187875270844,
		2.567866563796997,
		0.3325844705104828],
		"rotation":[5.053215392444312e-16,
		5.665538686387998e-16,
		-1.2246468525851679e-16,
		-1.0],
		"scale":[1.0,
		1.0,
		1.0],
		"mesh":7
	},
	{
		"name":"Wheel_right",
		"translation":[0.12736187875270844,
		-2.514146566390991,
		0.32418137788772585],
		"rotation":[2.832769343193999e-16,
		5.665538686387998e-16,
		-1.2246468525851679e-16,
		-1.0],
		"scale":[1.0,
		1.0,
		1.0],
		"mesh":8
	},
	{
		"name":"shelves",
		"translation":[-0.22690999507904054,
		-0.02727971039712429,
		5.735660552978516],
		"rotation":[0.0,
		-0.7071067690849304,
		0.0,
		-0.7071067690849304],
		"scale":[1.0,
		1.0,
		1.0],
		"children":[15,
		16,
		17,
		18]
	},
	{
		"name":"desk_haut.16",
		"translation":[0.7479874491691589,
		16.429161071777345,
		-0.42733460664749148],
		"rotation":[0.0,
		0.0,
		0.0,
		-1.0],
		"scale":[1.0,
		1.0,
		1.0],
		"mesh":9
	},
	{
		"name":"desk_haut",
		"translation":[0.7480000257492065,
		1.292462944984436,
		-0.42248454689979555],
		"rotation":[0.0,
		0.0,
		0.0,
		-1.0],
		"scale":[1.0,
		1.0,
		1.0],
		"mesh":10
	},
	{
		"name":"desk_haut.2",
		"translation":[0.7262630462646484,
		8.862161636352539,
		12.781464576721192],
		"rotation":[-0.7071067690849304,
		0.0,
		0.0,
		-0.7071067690849304],
		"scale":[1.0,
		1.0,
		1.0],
		"mesh":11
	},
	{
		"name":"desk_haut.3",
		"translation":[0.7262630462646484,
		8.862161636352539,
		-14.365558624267579],
		"rotation":[-0.7071067690849304,
		0.0,
		0.0,
		-0.7071067690849304],
		"scale":[1.0,
		1.0,
		1.0],
		"mesh":12
	},
	{
		"name":"flat_tapes",
		"translation":[3.829648971557617,
		8.804056167602539,
		-3.5833981037139894],
		"rotation":[0.0,
		0.0,
		0.0,
		-1.0],
		"scale":[1.0,
		1.0,
		1.0],
		"children":[20,
		21]
	},
	{
		"name":"right",
		"translation":[-6.158416271209717,
		0.0,
		0.0],
		"rotation":[0.0,
		0.0,
		0.0,
		-1.0],
		"scale":[1.0,
		1.0,
		1.0],
		"mesh":13
	},
	{
		"name":"left",
		"translation":[6.158416271209717,
		0.0,
		0.0],
		"rotation":[0.0,
		0.0,
		0.0,
		-1.0],
		"scale":[1.0,
		1.0,
		1.0],
		"mesh":14
	}],
	"meshes":[{
		"name":"Case_b_Case_b_elem",
		"primitives":[{
			"attributes":{
				"POSITION":1,
				"NORMAL":2,
				"TEXCOORD_0":3
			},
			"indices":0,
			"material":0
		}]
	},
	{
		"name":"Case_t_Case_t_elem",
		"primitives":[{
			"attributes":{
				"POSITION":5,
				"NORMAL":6,
				"TEXCOORD_0":7
			},
			"indices":4,
			"material":0
		}]
	},
	{
		"name":"Tape-Mat.1",
		"primitives":[{
			"attributes":{
				"POSITION":9,
				"NORMAL":10,
				"TEXCOORD_0":11
			},
			"indices":8,
			"material":1
		}]
	},
	{
		"name":"Tape-sticker",
		"primitives":[{
			"attributes":{
				"POSITION":13,
				"NORMAL":14,
				"TEXCOORD_0":15
			},
			"indices":12,
			"material":2
		}]
	},
	{
		"name":"Tape-crome",
		"primitives":[{
			"attributes":{
				"POSITION":17,
				"NORMAL":18,
				"TEXCOORD_0":19
			},
			"indices":16,
			"material":3
		}]
	},
	{
		"name":"Tape-glass",
		"primitives":[{
			"attributes":{
				"POSITION":21,
				"NORMAL":22,
				"TEXCOORD_0":23
			},
			"indices":20,
			"material":4
		}]
	},
	{
		"name":"Tape-black_plastic",
		"primitives":[{
			"attributes":{
				"POSITION":25,
				"NORMAL":26,
				"TEXCOORD_0":27
			},
			"indices":24,
			"material":5
		}]
	},
	{
		"name":"Wheel_left",
		"primitives":[{
			"attributes":{
				"POSITION":29,
				"NORMAL":30,
				"TEXCOORD_0":31
			},
			"indices":28
		}]
	},
	{
		"name":"Wheel_right",
		"primitives":[{
			"attributes":{
				"POSITION":33,
				"NORMAL":34,
				"TEXCOORD_0":35
			},
			"indices":32
		}]
	},
	{
		"name":"desk_haut.16",
		"primitives":[{
			"attributes":{
				"POSITION":37,
				"NORMAL":38,
				"TEXCOORD_0":39
			},
			"indices":36,
			"material":6
		}]
	},
	{
		"name":"desk_haut",
		"primitives":[{
			"attributes":{
				"POSITION":41,
				"NORMAL":42,
				"TEXCOORD_0":43
			},
			"indices":40,
			"material":6
		}]
	},
	{
		"name":"desk_haut.2",
		"primitives":[{
			"attributes":{
				"POSITION":45,
				"NORMAL":46,
				"TEXCOORD_0":47
			},
			"indices":44,
			"material":6
		}]
	},
	{
		"name":"desk_haut.3",
		"primitives":[{
			"attributes":{
				"POSITION":49,
				"NORMAL":50,
				"TEXCOORD_0":51
			},
			"indices":48,
			"material":6
		}]
	},
	{
		"name":"right",
		"primitives":[{
			"attributes":{
				"POSITION":53,
				"NORMAL":54,
				"TEXCOORD_0":55
			},
			"indices":52,
			"material":7
		}]
	},
	{
		"name":"left",
		"primitives":[{
			"attributes":{
				"POSITION":57,
				"NORMAL":58,
				"TEXCOORD_0":59
			},
			"indices":56,
			"material":8
		}]
	}],
	"accessors":[{
		"bufferView":0,
		"min":[0],
		"type":"SCALAR",
		"componentType":5123,
		"count":228,
		"byteOffset":0,
		"max":[215]
	},
	{
		"bufferView":1,
		"min":[-0.47188934683799746,
		-6.234278202056885,
		-4.041633129119873],
		"type":"VEC3",
		"componentType":5126,
		"count":216,
		"byteOffset":0,
		"max":[0.37506866455078127,
		6.223338603973389,
		4.106746673583984]
	},
	{
		"bufferView":1,
		"min":[-0.0005937500391155481,
		-0.9999688267707825,
		-0.9999688267707825],
		"type":"VEC3",
		"componentType":5126,
		"count":216,
		"byteOffset":12,
		"max":[0.9999688267707825,
		0.9999688267707825,
		0.8774687647819519]
	},
	{
		"bufferView":1,
		"min":[0.0,
		0.0],
		"type":"VEC2",
		"componentType":5126,
		"count":216,
		"byteOffset":24,
		"max":[1.0,
		1.0]
	},
	{
		"bufferView":2,
		"min":[0],
		"type":"SCALAR",
		"componentType":5123,
		"count":210,
		"byteOffset":0,
		"max":[205]
	},
	{
		"bufferView":3,
		"min":[-0.46949151158332827,
		0.0,
		-0.4145644009113312],
		"type":"VEC3",
		"componentType":5126,
		"count":206,
		"byteOffset":0,
		"max":[0.46949151158332827,
		12.531740188598633,
		7.876723766326904]
	},
	{
		"bufferView":3,
		"min":[-0.45737501978874209,
		-0.9999688267707825,
		-0.9999688267707825],
		"type":"VEC3",
		"componentType":5126,
		"count":206,
		"byteOffset":12,
		"max":[0.9999688267707825,
		0.9999688267707825,
		0.9999688267707825]
	},
	{
		"bufferView":3,
		"min":[0.0,
		0.0],
		"type":"VEC2",
		"componentType":5126,
		"count":206,
		"byteOffset":24,
		"max":[1.0,
		1.0]
	},
	{
		"bufferView":4,
		"min":[0],
		"type":"SCALAR",
		"componentType":5123,
		"count":825,
		"byteOffset":0,
		"max":[322]
	},
	{
		"bufferView":5,
		"min":[-0.058162424713373187,
		-5.241695404052734,
		-3.7860231399536135],
		"type":"VEC3",
		"componentType":5126,
		"count":323,
		"byteOffset":0,
		"max":[0.2938325107097626,
		5.433805465698242,
		3.173640012741089]
	},
	{
		"bufferView":5,
		"min":[-0.9999688267707825,
		-0.9993125200271606,
		-0.9999688267707825],
		"type":"VEC3",
		"componentType":5126,
		"count":323,
		"byteOffset":12,
		"max":[0.0,
		0.9999688267707825,
		0.9999688267707825]
	},
	{
		"bufferView":5,
		"min":[0.0,
		0.0],
		"type":"VEC2",
		"componentType":5126,
		"count":323,
		"byteOffset":24,
		"max":[1.0,
		1.0]
	},
	{
		"bufferView":6,
		"min":[0],
		"type":"SCALAR",
		"componentType":5123,
		"count":114,
		"byteOffset":0,
		"max":[37]
	},
	{
		"bufferView":7,
		"min":[-0.1282871961593628,
		-5.388443946838379,
		-1.8403120040893555],
		"type":"VEC3",
		"componentType":5126,
		"count":38,
		"byteOffset":0,
		"max":[0.29664692282676699,
		5.452773094177246,
		3.217350482940674]
	},
	{
		"bufferView":7,
		"min":[-0.9999688267707825,
		0.0,
		0.0],
		"type":"VEC3",
		"componentType":5126,
		"count":38,
		"byteOffset":12,
		"max":[0.9999688267707825,
		0.0,
		0.0]
	},
	{
		"bufferView":7,
		"min":[0.010242000222206116,
		0.010145999491214753],
		"type":"VEC2",
		"componentType":5126,
		"count":38,
		"byteOffset":24,
		"max":[0.9905250072479248,
		0.9898539781570435]
	},
	{
		"bufferView":8,
		"min":[0],
		"type":"SCALAR",
		"componentType":5123,
		"count":8988,
		"byteOffset":0,
		"max":[3845]
	},
	{
		"bufferView":9,
		"min":[-0.349263995885849,
		-5.8263959884643559,
		-3.79168701171875],
		"type":"VEC3",
		"componentType":5126,
		"count":3846,
		"byteOffset":0,
		"max":[0.5114933848381043,
		5.86304235458374,
		3.6659915447235109]
	},
	{
		"bufferView":9,
		"min":[-0.9999688267707825,
		-0.9986875653266907,
		-0.9904375672340393],
		"type":"VEC3",
		"componentType":5126,
		"count":3846,
		"byteOffset":12,
		"max":[0.9999688267707825,
		0.9987813234329224,
		0.9892500638961792]
	},
	{
		"bufferView":9,
		"min":[0.0,
		0.0],
		"type":"VEC2",
		"componentType":5126,
		"count":3846,
		"byteOffset":24,
		"max":[1.0,
		1.0]
	},
	{
		"bufferView":10,
		"min":[0],
		"type":"SCALAR",
		"componentType":5123,
		"count":36,
		"byteOffset":0,
		"max":[15]
	},
	{
		"bufferView":11,
		"min":[-0.12828677892684937,
		-1.4321759939193726,
		-0.71278977394104],
		"type":"VEC3",
		"componentType":5126,
		"count":16,
		"byteOffset":0,
		"max":[0.2966466546058655,
		1.4497381448745728,
		1.2342145442962647]
	},
	{
		"bufferView":11,
		"min":[-0.9999688267707825,
		0.0,
		0.0],
		"type":"VEC3",
		"componentType":5126,
		"count":16,
		"byteOffset":12,
		"max":[0.9999688267707825,
		0.0,
		0.0]
	},
	{
		"bufferView":11,
		"min":[0.0010789998341351748,
		0.0007409999379888177],
		"type":"VEC2",
		"componentType":5126,
		"count":16,
		"byteOffset":24,
		"max":[0.983380913734436,
		0.9992589950561523]
	},
	{
		"bufferView":12,
		"min":[0],
		"type":"SCALAR",
		"componentType":5123,
		"count":11445,
		"byteOffset":0,
		"max":[4710]
	},
	{
		"bufferView":13,
		"min":[-0.349263995885849,
		-5.9543633460998539,
		-3.9331514835357668],
		"type":"VEC3",
		"componentType":5126,
		"count":4711,
		"byteOffset":0,
		"max":[0.5176249742507935,
		6.001065254211426,
		3.8040716648101808]
	},
	{
		"bufferView":13,
		"min":[-0.9999688267707825,
		-0.9999688267707825,
		-0.9999688267707825],
		"type":"VEC3",
		"componentType":5126,
		"count":4711,
		"byteOffset":12,
		"max":[0.9999688267707825,
		0.9999688267707825,
		0.9999688267707825]
	},
	{
		"bufferView":13,
		"min":[0.0,
		0.0],
		"type":"VEC2",
		"componentType":5126,
		"count":4711,
		"byteOffset":24,
		"max":[1.0,
		1.0]
	},
	{
		"bufferView":14,
		"min":[0],
		"type":"SCALAR",
		"componentType":5123,
		"count":540,
		"byteOffset":0,
		"max":[247]
	},
	{
		"bufferView":15,
		"min":[-0.14079780876636506,
		-0.7237836718559265,
		-0.7136004567146301],
		"type":"VEC3",
		"componentType":5126,
		"count":248,
		"byteOffset":0,
		"max":[0.14079780876636506,
		0.7237836718559265,
		0.7136004567146301]
	},
	{
		"bufferView":15,
		"min":[-1.0,
		-0.9992709755897522,
		-0.9999790787696838],
		"type":"VEC3",
		"componentType":5126,
		"count":248,
		"byteOffset":12,
		"max":[1.0,
		0.9984137415885925,
		0.9934785962104797]
	},
	{
		"bufferView":15,
		"min":[0.0,
		0.0],
		"type":"VEC2",
		"componentType":5126,
		"count":248,
		"byteOffset":24,
		"max":[1.0,
		1.0]
	},
	{
		"bufferView":16,
		"min":[0],
		"type":"SCALAR",
		"componentType":5123,
		"count":540,
		"byteOffset":0,
		"max":[247]
	},
	{
		"bufferView":17,
		"min":[-0.14079780876636506,
		-0.7237836718559265,
		-0.7136004567146301],
		"type":"VEC3",
		"componentType":5126,
		"count":248,
		"byteOffset":0,
		"max":[0.14079780876636506,
		0.7237836718559265,
		0.7136004567146301]
	},
	{
		"bufferView":17,
		"min":[-1.0,
		-0.9992709755897522,
		-0.9999790787696838],
		"type":"VEC3",
		"componentType":5126,
		"count":248,
		"byteOffset":12,
		"max":[1.0,
		0.9984137415885925,
		0.9934785962104797]
	},
	{
		"bufferView":17,
		"min":[0.0,
		0.0],
		"type":"VEC2",
		"componentType":5126,
		"count":248,
		"byteOffset":24,
		"max":[1.0,
		1.0]
	},
	{
		"bufferView":18,
		"min":[0],
		"type":"SCALAR",
		"componentType":5123,
		"count":30,
		"byteOffset":0,
		"max":[19]
	},
	{
		"bufferView":19,
		"min":[-9.490646362304688,
		-1.25,
		-13.833139419555664],
		"type":"VEC3",
		"componentType":5126,
		"count":20,
		"byteOffset":0,
		"max":[9.490646362304688,
		1.25,
		13.833139419555664]
	},
	{
		"bufferView":19,
		"min":[0.0,
		-1.0,
		0.0],
		"type":"VEC3",
		"componentType":5126,
		"count":20,
		"byteOffset":12,
		"max":[1.0,
		1.0,
		0.0]
	},
	{
		"bufferView":19,
		"min":[0.0,
		-0.19999998807907105],
		"type":"VEC2",
		"componentType":5126,
		"count":20,
		"byteOffset":24,
		"max":[1.0263416767120362,
		1.0]
	},
	{
		"bufferView":20,
		"min":[0],
		"type":"SCALAR",
		"componentType":5123,
		"count":30,
		"byteOffset":0,
		"max":[19]
	},
	{
		"bufferView":21,
		"min":[-9.490500450134278,
		-1.25,
		-15.140990257263184],
		"type":"VEC3",
		"componentType":5126,
		"count":20,
		"byteOffset":0,
		"max":[9.490500450134278,
		1.25,
		13.656991958618164]
	},
	{
		"bufferView":21,
		"min":[0.0,
		-1.0,
		0.0],
		"type":"VEC3",
		"componentType":5126,
		"count":20,
		"byteOffset":12,
		"max":[1.0,
		1.0,
		0.0]
	},
	{
		"bufferView":21,
		"min":[0.0,
		-0.19999998807907105],
		"type":"VEC2",
		"componentType":5126,
		"count":20,
		"byteOffset":24,
		"max":[1.0263421535491944,
		1.0]
	},
	{
		"bufferView":22,
		"min":[0],
		"type":"SCALAR",
		"componentType":5123,
		"count":90,
		"byteOffset":0,
		"max":[47]
	},
	{
		"bufferView":23,
		"min":[-9.509724617004395,
		-1.9149821996688843,
		-8.819999694824219],
		"type":"VEC3",
		"componentType":5126,
		"count":48,
		"byteOffset":0,
		"max":[9.509724617004395,
		1.9149821996688843,
		8.819999694824219]
	},
	{
		"bufferView":23,
		"min":[0.0,
		-1.0,
		-1.0],
		"type":"VEC3",
		"componentType":5126,
		"count":48,
		"byteOffset":12,
		"max":[1.0,
		1.0,
		1.0]
	},
	{
		"bufferView":23,
		"min":[0.0,
		-0.13054952025413514],
		"type":"VEC2",
		"componentType":5126,
		"count":48,
		"byteOffset":24,
		"max":[1.0283446311950684,
		1.130549430847168]
	},
	{
		"bufferView":24,
		"min":[0],
		"type":"SCALAR",
		"componentType":5123,
		"count":90,
		"byteOffset":0,
		"max":[47]
	},
	{
		"bufferView":25,
		"min":[-9.509724617004395,
		-1.9149821996688843,
		-8.819999694824219],
		"type":"VEC3",
		"componentType":5126,
		"count":48,
		"byteOffset":0,
		"max":[9.509724617004395,
		1.9149821996688843,
		8.819999694824219]
	},
	{
		"bufferView":25,
		"min":[0.0,
		-1.0,
		-1.0],
		"type":"VEC3",
		"componentType":5126,
		"count":48,
		"byteOffset":12,
		"max":[1.0,
		1.0,
		1.0]
	},
	{
		"bufferView":25,
		"min":[0.0,
		-0.13054952025413514],
		"type":"VEC2",
		"componentType":5126,
		"count":48,
		"byteOffset":24,
		"max":[1.0283446311950684,
		1.130549430847168]
	},
	{
		"bufferView":26,
		"min":[0],
		"type":"SCALAR",
		"componentType":5123,
		"count":36,
		"byteOffset":0,
		"max":[23]
	},
	{
		"bufferView":27,
		"min":[-10.23573112487793,
		-6.349999904632568,
		-0.8119112849235535],
		"type":"VEC3",
		"componentType":5126,
		"count":24,
		"byteOffset":0,
		"max":[10.23573112487793,
		6.349999904632568,
		0.8119112849235535]
	},
	{
		"bufferView":27,
		"min":[-1.0,
		-1.0,
		-1.0],
		"type":"VEC3",
		"componentType":5126,
		"count":24,
		"byteOffset":12,
		"max":[1.0,
		1.0,
		1.0]
	},
	{
		"bufferView":27,
		"min":[0.0,
		0.0],
		"type":"VEC2",
		"componentType":5126,
		"count":24,
		"byteOffset":24,
		"max":[1.0,
		1.0]
	},
	{
		"bufferView":28,
		"min":[0],
		"type":"SCALAR",
		"componentType":5123,
		"count":36,
		"byteOffset":0,
		"max":[23]
	},
	{
		"bufferView":29,
		"min":[-0.6725982427597046,
		-6.349999904632568,
		-0.8119112849235535],
		"type":"VEC3",
		"componentType":5126,
		"count":24,
		"byteOffset":0,
		"max":[0.6725982427597046,
		6.349999904632568,
		0.8119112849235535]
	},
	{
		"bufferView":29,
		"min":[-1.0,
		-1.0,
		-1.0],
		"type":"VEC3",
		"componentType":5126,
		"count":24,
		"byteOffset":12,
		"max":[1.0,
		1.0,
		1.0]
	},
	{
		"bufferView":29,
		"min":[0.0,
		0.0],
		"type":"VEC2",
		"componentType":5126,
		"count":24,
		"byteOffset":24,
		"max":[1.0,
		1.0]
	}],
	"buffers":[{
		"uri":"data:application/octet-stream;base64,",
		"byteLength":7368
	},
	{
		"uri":"data:application/octet-stream;base64,",
		"byteLength":7012
	},
	{
		"uri":"data:application/octet-stream;base64,",
		"byteLength":11988
	},
	{
		"uri":"data:application/octet-stream;base64,",
		"byteLength":1444
	},
	{
		"uri":"data:application/octet-stream;base64,",
		"byteLength":141048
	},
	{
		"uri":"data:application/octet-stream;base64,",
		"byteLength":584
	},
	{
		"uri":"data:application/octet-stream;base64,",
		"byteLength":173644
	},
	{
		"uri":"data:application/octet-stream;base64,",
		"byteLength":9016
	},
	{
		"uri":"data:application/octet-stream;base64,",
		"byteLength":9016
	},
	{
		"uri":"data:application/octet-stream;base64,",
		"byteLength":700
	},
	{
		"uri":"data:application/octet-stream;base64,",
		"byteLength":700
	},
	{
		"uri":"data:application/octet-stream;base64,",
		"byteLength":1716
	},
	{
		"uri":"data:application/octet-stream;base64,",
		"byteLength":1716
	},
	{
		"uri":"data:application/octet-stream;base64,",
		"byteLength":840
	},
	{
		"uri":"data:application/octet-stream;base64,",
		"byteLength":840
	}],
	"images":[{
		"uri":"data:image/jpeg;base64,"
	},
	{
		"uri":"data:image/jpeg;base64,"
	}],
	"samplers":[{
		"magFilter":9729,
		"minFilter":9729,
		"wrapS":10497,
		"wrapT":10497
	},
	{
		"magFilter":9729,
		"minFilter":9729,
		"wrapS":10497,
		"wrapT":10497
	}],
	"textures":[{
		"sampler":0,
		"source":0
	},
	{
		"sampler":1,
		"source":1
	}],
	"materials":[{
		"alphaMode":"OPAQUE",
		"pbrMetallicRoughness":{
			"baseColorFactor":[1.0,
			1.0,
			1.0,
			1.0],
			"metallicFactor":0.0,
			"roughnessFactor":0.5
		},
		"emissiveFactor":[0.0,
		0.0,
		0.0],
		"doubleSided":true,
		"name":"Case_M"
	},
	{
		"alphaMode":"OPAQUE",
		"pbrMetallicRoughness":{
			"baseColorFactor":[0.800000011920929,
			0.800000011920929,
			0.800000011920929,
			1.0],
			"metallicFactor":1.0,
			"roughnessFactor":0.4921875
		},
		"emissiveFactor":[0.0,
		0.0,
		0.0],
		"doubleSided":true,
		"name":"Mat.1"
	},
	{
		"alphaMode":"OPAQUE",
		"pbrMetallicRoughness":{
			"baseColorFactor":[0.800000011920929,
			0.800000011920929,
			0.800000011920929,
			1.0],
			"metallicFactor":1.0,
			"roughnessFactor":0.4921875
		},
		"emissiveFactor":[0.0,
		0.0,
		0.0],
		"doubleSided":true,
		"name":"sticker"
	},
	{
		"alphaMode":"OPAQUE",
		"pbrMetallicRoughness":{
			"baseColorFactor":[0.23999999463558198,
			0.23999999463558198,
			0.23999999463558198,
			1.0],
			"metallicFactor":1.0,
			"roughnessFactor":0.4921875
		},
		"emissiveFactor":[0.0,
		0.0,
		0.0],
		"doubleSided":true,
		"name":"crome"
	},
	{
		"alphaMode":"BLEND",
		"pbrMetallicRoughness":{
			"baseColorFactor":[0.19607800245285035,
			0.19607800245285035,
			0.20000000298023225,
			0.1499999761581421],
			"metallicFactor":1.0,
			"roughnessFactor":0.4921875
		},
		"emissiveFactor":[0.0,
		0.0,
		0.0],
		"doubleSided":true,
		"name":"glass"
	},
	{
		"alphaMode":"OPAQUE",
		"pbrMetallicRoughness":{
			"baseColorFactor":[0.800000011920929,
			0.800000011920929,
			0.800000011920929,
			1.0],
			"metallicFactor":1.0,
			"roughnessFactor":0.4921875
		},
		"emissiveFactor":[0.0,
		0.0,
		0.0],
		"doubleSided":true,
		"name":"black_plastic"
	},
	{
		"alphaMode":"OPAQUE",
		"pbrMetallicRoughness":{
			"baseColorFactor":[1.0,
			1.0,
			1.0,
			1.0],
			"metallicFactor":1.0,
			"roughnessFactor":1.0
		},
		"emissiveFactor":[0.9019607843137255,
		0.8156862745098039,
		0.7333333333333333],
		"doubleSided":true,
		"name":"Mat"
	},
	{
		"alphaMode":"OPAQUE",
		"pbrMetallicRoughness":{
			"baseColorTexture":{
				"index":0
			},
			"baseColorFactor":[0.8,
			0.8,
			0.8,
			1.0],
			"metallicFactor":1.0,
			"roughnessFactor":1.0
		},
		"emissiveFactor":[0.0,
		0.0,
		0.0],
		"doubleSided":true,
		"name":"02"
	},
	{
		"alphaMode":"OPAQUE",
		"pbrMetallicRoughness":{
			"baseColorTexture":{
				"index":1
			},
			"baseColorFactor":[0.8,
			0.8,
			0.8,
			1.0],
			"metallicFactor":1.0,
			"roughnessFactor":1.0
		},
		"emissiveFactor":[0.0,
		0.0,
		0.0],
		"doubleSided":true,
		"name":"01"
	}]
}