<svg width="163" height="168" viewBox="0 0 163 168" fill="none" xmlns="http://www.w3.org/2000/svg">
<g clip-path="url(#clip0)">
<path d="M69.9427 7.03743C69.6425 3.14438 72.044 0.449194 75.9464 0.149729C77.7475 -3.39746e-06 79.3985 0.299462 80.7493 0.898392L79.6987 7.33689C76.5468 2.24599 75.0458 1.19786 73.695 1.34759C72.9445 1.34759 72.3442 2.09625 72.4943 3.44385C72.9445 8.08556 76.997 11.3797 80.7493 11.0802C81.1996 11.0802 81.8 10.9305 82.2503 10.7807C81.4998 12.4278 79.6987 13.6257 77.4473 13.7754C73.2447 13.9251 70.393 11.2299 69.9427 7.03743Z" fill="black"/>
<path d="M93.3571 13.4759V13.7753L88.8543 13.3261L89.0044 12.278C88.1039 12.877 87.0532 13.3261 86.1527 13.1764C84.9519 13.0267 84.2015 12.278 84.3516 11.2299C84.5016 9.58283 86.3027 8.68444 89.3046 8.53471C89.4547 6.58818 88.7042 5.54005 87.3534 5.39032C86.6029 5.39032 86.0026 5.54005 85.2521 5.83952V5.98925C86.6029 4.79139 87.9538 4.19246 89.7549 4.34219C92.0062 4.49192 93.0569 5.83952 92.7567 8.38497L92.4565 13.4759H93.3571ZM88.8543 12.1283L89.1545 8.9839C88.1039 9.13364 87.6536 9.8823 87.5035 10.7807C87.5035 11.6791 87.8037 12.1283 88.404 12.1283C88.5541 12.1283 88.7042 12.1283 88.8543 12.1283Z" fill="black"/>
<path d="M106.715 11.9785C105.965 15.1229 103.563 16.4705 100.111 15.5721C98.9105 15.2727 97.1094 14.524 95.9087 13.7753L98.6103 3.59352L97.8599 2.54539L102.813 2.09619L101.312 7.78603C102.513 7.03737 103.713 6.7379 104.764 7.03737C106.415 7.48657 107.316 9.28336 106.715 11.9785ZM102.663 11.9785C103.263 9.58282 103.113 8.38496 101.912 8.0855C101.612 8.0855 101.462 8.0855 101.162 8.0855L99.3608 14.6737C99.5109 14.9732 99.8111 15.1229 100.111 15.1229C101.012 15.4224 102.062 14.524 102.663 11.9785Z" fill="black"/>
<path d="M107.616 17.369L108.516 17.6685L111.068 11.6792L110.467 10.4813L115.421 10.7808L111.968 19.1658L112.869 19.4653L112.719 19.7648L107.766 17.6685L107.616 17.369ZM112.569 7.03749C113.019 5.98937 114.07 5.54017 115.12 5.98937C116.321 6.43856 116.621 7.48669 116.171 8.53482C115.721 9.58295 114.67 10.1819 113.619 9.58295C112.569 9.28348 112.118 8.23535 112.569 7.03749Z" fill="black"/>
<path d="M123.976 25.7541L123.826 26.0535L119.323 23.3584L119.473 23.0589L120.073 23.3584L122.925 18.7166C123.676 17.5188 123.525 16.9198 122.925 16.6204C122.625 16.4707 122.325 16.3209 121.874 16.3209L118.272 22.3102L118.873 22.6097L118.722 22.9092L114.22 20.214L114.37 19.9145L115.12 20.3637L118.572 14.9733L118.122 13.6257L122.925 14.6739L122.025 16.1712C123.525 15.8717 124.876 15.8717 125.927 16.4707C127.278 17.2193 127.428 18.4172 126.527 20.0642L123.375 25.3049L123.976 25.7541Z" fill="black"/>
<path d="M132.681 31.294C131.331 31.7432 129.98 31.4437 128.779 30.3956C126.828 28.7485 126.378 26.0534 128.179 23.9571C129.83 22.0106 132.681 21.4116 134.783 23.2084C136.134 24.2566 136.284 25.7539 135.533 26.802C134.633 27.9999 132.832 28.1496 130.73 27.4009C130.88 28.8983 131.481 30.2459 132.381 30.9945C132.381 31.1443 132.531 31.294 132.681 31.294ZM131.781 23.0587C130.88 24.2566 130.43 25.9036 130.58 27.4009C131.331 27.2512 131.931 26.802 132.531 26.0534C133.582 24.8555 133.582 23.2084 132.982 22.6095C132.681 22.31 132.231 22.4598 131.781 23.0587Z" fill="black"/>
<path d="M139.135 38.1817C137.935 38.3315 136.584 38.032 135.383 36.8341C133.882 35.1871 134.332 33.8395 135.983 32.1924L139.736 28.7486L138.835 27.7004L145.139 28.7486L142.437 31.1443L144.088 32.9411L143.938 33.0908L142.137 31.4438L138.985 34.2887C137.484 35.6363 137.184 36.5347 138.085 37.5828C138.535 37.8823 138.685 38.032 139.135 38.1817Z" fill="black"/>
<path d="M147.69 54.3528L147.39 54.5026L145.139 50.6095L146.34 49.8608C145.139 49.4116 144.088 48.8127 143.488 47.9143C142.587 46.2673 143.188 44.3207 145.589 42.9731C148.141 41.4758 150.842 41.925 152.043 44.171C152.493 45.0694 152.643 45.6683 152.493 46.417L154.595 45.2191L154.895 43.8715L158.497 47.1657L146.94 53.6042L147.69 54.3528ZM146.64 49.7111L152.343 46.5667C152.343 46.2673 152.343 45.9678 152.193 45.6683C151.743 44.9197 150.392 44.7699 148.441 45.9678C146.34 47.1657 145.589 48.2138 146.189 49.2619C146.34 49.4116 146.49 49.5614 146.64 49.7111Z" fill="black"/>
<path d="M152.493 63.4867C151.143 63.1873 150.092 62.2889 149.492 60.6418C148.591 58.2461 149.492 55.7006 152.193 54.8022C154.595 53.9038 157.296 54.8022 158.347 57.4974C158.947 59.1445 158.347 60.4921 157.146 60.9413C155.795 61.3905 154.144 60.7915 152.643 59.1445C152.043 60.4921 151.893 61.8397 152.343 63.0375C152.343 63.1873 152.343 63.337 152.493 63.4867ZM155.945 55.8504C154.595 56.2996 153.394 57.6472 152.643 58.9947C153.394 59.2942 154.144 59.1445 155.045 58.845C156.546 58.2461 157.446 56.8985 157.146 56.1498C156.996 55.7006 156.546 55.5509 155.945 55.8504Z" fill="black"/>
<path d="M156.846 70.6737C159.548 70.3743 161.949 72.0213 162.249 75.016C162.399 76.0641 162.399 76.9625 162.099 78.1604H156.996C159.998 76.0641 161.499 74.2673 161.349 73.2192C161.349 72.77 160.899 72.6203 160.298 72.6203C157.446 72.9197 154.745 76.2139 155.045 78.7593C155.045 79.0588 155.045 79.0588 155.195 79.3582C153.844 78.7593 153.094 77.4117 152.944 75.9144C152.643 73.2192 154.144 70.9732 156.846 70.6737Z" fill="black"/>
<path d="M153.694 92.2354H153.394L153.544 87.7434H154.895C154.145 86.5456 153.394 85.4974 153.394 84.4493C153.394 82.8023 154.445 82.2033 156.546 82.2033L160.598 82.3531L161.499 81.3049L163 85.9466L157.296 85.7969C155.796 85.7969 155.195 85.7969 155.195 86.6953C155.195 86.9948 155.195 87.2942 155.345 87.5937L160.448 87.7434L161.349 86.6953L162.85 91.337L153.844 91.0375L153.694 92.2354Z" fill="black"/>
<path d="M160.598 103.465L155.946 102.567C158.347 101.07 158.947 100.321 158.947 99.722L152.493 98.5241L152.193 99.8717H151.893L152.944 94.1819H153.244L153.094 95.0803L159.548 96.2781L160.598 95.3797L161.199 100.171L158.947 99.722C160.148 100.92 160.748 102.267 160.598 103.166C160.748 103.316 160.748 103.316 160.598 103.465Z" fill="black"/>
<path d="M155.345 105.412C157.746 106.31 158.947 108.856 158.047 111.7C156.996 114.545 154.594 115.893 151.893 114.845C149.491 113.946 147.99 111.701 149.191 108.406C150.092 106.011 152.643 104.513 155.345 105.412ZM149.792 111.7C151.142 112.15 157.596 111.251 158.047 109.754C158.197 109.305 158.047 109.005 157.446 108.706C155.795 108.107 149.641 109.155 149.191 110.503C149.041 111.102 149.191 111.401 149.792 111.7Z" fill="black"/>
<path d="M146.94 115.444L149.192 117.39L145.439 117.84C145.289 117.989 145.139 118.139 145.139 118.289C144.689 119.037 144.839 119.636 145.439 119.936C145.89 120.235 146.34 120.086 147.09 119.636L148.141 118.888C149.492 117.989 150.692 117.69 151.893 118.439C153.544 119.337 153.844 121.134 152.644 123.23C152.043 124.278 151.443 125.027 150.692 125.626L148.591 123.679L152.193 123.23C152.193 123.23 152.343 123.08 152.343 122.93C152.794 122.182 152.494 121.733 152.043 121.433C151.443 121.134 150.993 121.134 149.942 121.882L148.891 122.781C147.691 123.529 146.64 123.679 145.589 123.08C143.938 122.182 143.788 119.936 144.989 117.989C145.289 117.39 146.04 116.342 146.94 115.444Z" fill="black"/>
<path d="M142.287 123.529L141.687 124.278L147.09 128.021L148.441 127.722L147.09 132.364L139.585 127.123L139.135 127.872L138.835 127.722L141.987 123.38L142.287 123.529ZM151.143 130.717C152.043 131.465 152.343 132.513 151.593 133.561C150.842 134.61 149.792 134.759 148.741 134.011C147.69 133.262 147.54 132.214 148.291 131.166C149.041 130.118 150.092 129.968 151.143 130.717Z" fill="black"/>
<path d="M133.732 136.107C133.432 134.909 133.582 133.561 134.782 132.214C136.283 130.567 137.784 130.866 139.435 132.364L143.188 135.807L144.088 134.759L143.638 141.048L141.086 138.652L139.435 140.599L139.285 140.449L140.936 138.503L137.784 135.658C136.283 134.31 135.383 134.16 134.482 135.059C134.032 135.508 133.882 135.658 133.732 136.107Z" fill="black"/>
<path d="M126.227 142.545C126.077 141.198 126.527 139.85 127.878 138.802C129.829 137.155 132.531 137.155 134.332 139.251C135.983 141.198 136.133 144.043 133.882 145.84C132.531 146.888 131.03 146.888 130.28 145.989C129.379 144.791 129.379 143.144 130.43 141.048C128.929 140.898 127.578 141.198 126.678 142.096C126.377 142.246 126.377 142.396 126.227 142.545ZM134.632 143.144C133.732 141.947 132.081 141.348 130.58 141.198C130.58 141.947 130.88 142.695 131.481 143.444C132.531 144.642 134.182 144.941 134.783 144.492C135.083 144.193 134.933 143.594 134.632 143.144ZM135.233 145.241L137.184 148.535L134.332 150.93L135.233 145.241Z" fill="black"/>
<path d="M117.972 156.021C118.422 157.07 118.122 157.968 117.222 158.417C116.321 158.866 115.421 158.567 114.82 157.519C114.22 156.471 114.67 155.572 115.571 155.123C116.621 154.824 117.522 155.123 117.972 156.021Z" fill="black"/>
<path d="M99.8109 160.514C100.411 164.407 98.1599 167.252 94.2575 167.85C92.4564 168.15 90.8053 168 89.4545 167.401L90.0549 160.963C93.507 165.904 95.158 166.802 96.3587 166.653C97.1092 166.503 97.7096 165.904 97.4094 164.407C96.6589 159.915 92.4564 156.77 88.704 157.219C88.2538 157.219 87.6534 157.519 87.2031 157.669C87.8035 156.022 89.6046 154.674 91.7059 154.374C95.9085 153.776 99.0604 156.321 99.8109 160.514Z" fill="black"/>
<path d="M75.9463 155.572V155.273L80.4491 155.422V156.471C81.3496 155.722 82.2502 155.273 83.3008 155.273C84.5015 155.273 85.252 156.021 85.252 157.07C85.252 158.717 83.4509 159.765 80.4491 160.064C80.4491 162.011 81.1995 163.059 82.5503 163.059C83.3008 163.059 83.9012 162.909 84.5015 162.46L84.6516 162.61C83.4509 163.957 82.1001 164.706 80.299 164.556C78.0476 164.556 76.8468 163.209 76.8468 160.513L76.9969 155.572H75.9463ZM80.4491 156.62L80.299 159.765C81.3496 159.465 81.7999 158.866 81.7999 157.818C81.7999 156.92 81.4997 156.471 80.7492 156.471C80.7492 156.62 80.5991 156.62 80.4491 156.62Z" fill="black"/>
<path d="M62.7384 157.818C63.3387 154.674 65.5901 153.176 69.0422 153.925C70.243 154.225 72.0441 154.824 73.2448 155.422L71.2936 165.754L72.1942 166.802L67.3912 167.551L68.4419 161.711C67.3912 162.46 66.0404 162.909 64.9897 162.759C63.3387 162.31 62.2881 160.663 62.7384 157.818ZM66.7909 157.668C66.3406 160.064 66.6408 161.262 67.8415 161.562C68.1417 161.562 68.2918 161.562 68.592 161.562L69.9428 154.824C69.7927 154.674 69.4925 154.524 69.1923 154.374C68.1417 154.075 67.2411 155.123 66.7909 157.668Z" fill="black"/>
<path d="M57.1848 163.059C56.7345 164.107 55.834 164.706 54.6332 164.257C53.4325 163.808 52.9822 162.909 53.4325 161.711C53.8828 160.514 54.7833 160.064 55.9841 160.514C57.1848 160.963 57.485 162.011 57.1848 163.059ZM61.5375 152.578L60.6369 152.278L58.5356 158.417L59.2861 159.615H54.3331L57.3349 151.08L56.4343 150.781L56.5844 150.481L61.6876 152.278L61.5375 152.578Z" fill="black"/>
<path d="M44.7272 145.091L44.8773 144.792L49.5301 147.187L49.3801 147.487L48.7797 147.187L46.2281 151.979C45.6277 153.177 45.6277 153.775 46.3782 154.075C46.6784 154.225 47.1287 154.374 47.4289 154.374L50.5808 148.086L49.9804 147.786L50.1305 147.487L54.7834 149.882L54.6333 150.182L53.8828 149.733L50.881 155.572L51.3312 156.77L46.5283 156.021L47.4289 154.374C45.9279 154.674 44.7272 154.824 43.5265 154.374C42.1756 153.626 41.8754 152.428 42.776 150.781L45.6277 145.241L44.7272 145.091Z" fill="black"/>
<path d="M35.5716 140.15C36.9224 139.7 38.2732 139.85 39.6241 140.898C41.7254 142.396 42.3257 145.091 40.6747 147.337C39.1738 149.433 36.322 150.182 34.0707 148.385C32.7198 147.337 32.4196 145.839 33.1701 144.791C34.0707 143.593 35.7217 143.294 37.973 143.893C37.823 142.545 37.0725 141.198 36.1719 140.449C35.8718 140.299 35.7217 140.299 35.5716 140.15ZM36.9224 148.385C37.823 147.187 38.1231 145.54 37.823 144.043C37.0725 144.192 36.4721 144.791 35.8718 145.39C34.9712 146.588 34.9712 148.385 35.5716 148.834C36.0219 149.134 36.4721 148.984 36.9224 148.385Z" fill="black"/>
<path d="M28.8174 133.711C30.0181 133.412 31.3689 133.711 32.5697 134.76C34.0706 136.257 33.7704 137.754 32.2695 139.401L28.6673 142.995L29.7179 143.893L23.4141 143.294L25.9656 140.599L24.0144 139.102L24.1645 138.952L25.9656 140.749L28.8174 137.754C30.3183 136.257 30.4684 135.358 29.5678 134.46C29.4177 134.011 29.1176 133.861 28.8174 133.711Z" fill="black"/>
<path d="M19.2117 118.289L19.5119 118.139L21.9134 121.882L20.7126 122.631C22.0635 122.93 23.1141 123.529 23.7145 124.428C24.7651 125.925 24.1648 127.872 21.9134 129.369C19.3618 131.016 16.6601 130.716 15.3093 128.62C14.859 127.872 14.709 127.123 14.709 126.374L12.6077 127.722L12.4576 129.069L8.55518 126.075L19.662 118.888L19.2117 118.289ZM20.4124 122.781L15.0091 126.224C15.0091 126.524 15.1592 126.823 15.3093 127.123C15.7596 127.872 17.1104 127.872 19.0616 126.674C21.1629 125.326 21.7633 124.278 21.1629 123.23C20.8627 123.08 20.7126 122.93 20.4124 122.781Z" fill="black"/>
<path d="M13.8083 109.305C15.1591 109.604 16.2098 110.353 16.9602 111.85C18.0109 114.246 17.2604 116.792 14.7088 117.84C12.3074 118.888 9.60571 118.139 8.40498 115.444C7.65452 113.947 8.10479 112.449 9.30553 111.85C10.6564 111.251 12.3074 111.85 13.9584 113.497C14.4087 112.15 14.5588 110.653 14.1085 109.604C13.9584 109.604 13.9584 109.455 13.8083 109.305ZM10.8065 117.241C12.1573 116.642 13.2079 115.294 13.8083 113.947C13.0578 113.797 12.3074 113.797 11.4068 114.246C9.9059 114.845 9.15544 116.342 9.45562 117.091C9.75581 117.39 10.2061 117.54 10.8065 117.241Z" fill="black"/>
<path d="M8.85513 102.417C6.30357 102.866 3.752 101.519 3.15163 98.524C3.00154 97.4759 3.00154 96.5775 3.15163 95.3797L8.25476 95.0802C5.40301 97.3262 4.05218 99.2727 4.20228 100.321C4.35237 100.77 4.65255 100.92 5.25292 100.77C8.10467 100.171 10.5061 96.877 10.0559 94.3315C10.0559 94.0321 9.90577 94.0321 9.90577 93.8823C11.2566 94.4813 12.0071 95.6791 12.3072 97.1764C12.9076 99.5722 11.7069 101.968 8.85513 102.417Z" fill="black"/>
<path d="M10.6564 80.8557H10.9566L11.1067 85.3477H9.75585C10.6564 86.5456 11.4069 87.4439 11.4069 88.4921C11.4069 90.1391 10.5063 90.8878 8.40502 90.8878L4.50263 91.0375L3.60208 92.0857L1.80097 87.444L7.50447 87.2942C9.00539 87.2942 9.60576 87.1445 9.60576 86.2461C9.60576 85.9466 9.45567 85.6472 9.45567 85.3477L4.35254 85.4974L3.45198 86.5456L1.65088 81.9038L10.6564 81.6044V80.8557Z" fill="black"/>
<path d="M3.15164 69.925L7.95458 70.524C5.7032 72.171 5.10283 72.9197 5.10283 73.5186L11.5568 74.417L11.7069 73.0694H12.0071L11.2566 78.909H10.9564L11.1065 78.0106L4.50247 77.2619L3.45182 78.1603L2.55127 73.3689L4.80265 73.6684C3.60191 72.4705 3.00155 71.1229 3.00155 70.3742C3.00155 70.2245 3.15164 70.0748 3.15164 69.925Z" fill="black"/>
<path d="M1.50076 65.5829C0.300021 65.2834 -0.300347 64.385 -0.000163026 63.1872C0.300021 61.9893 1.35067 61.3904 2.40131 61.6898C3.60205 61.9893 4.20241 62.8877 3.90223 64.0856C3.60205 65.2834 2.70149 65.8823 1.50076 65.5829ZM12.4575 69.0267L12.6076 68.1283L6.3037 66.4813L5.10297 67.3797L4.65269 62.4385L13.5081 64.6845L13.6582 63.7861H13.9584L12.6076 69.0267H12.4575Z" fill="black"/>
<path d="M10.3564 60.0427C7.95492 58.9946 6.90428 56.4492 7.95492 53.754C9.15566 51.0588 11.5571 49.7112 14.2588 50.7593C16.6603 51.8075 18.0111 54.0534 16.6603 57.1978C15.6096 59.5936 13.0581 61.0909 10.3564 60.0427ZM16.21 54.2032C14.8592 53.6042 8.4052 54.2032 7.80483 55.7005C7.65474 56.1497 7.80483 56.4492 8.4052 56.7486C10.0562 57.3476 16.21 56.5989 16.8104 55.2513C16.9604 54.6524 16.8104 54.3529 16.21 54.2032Z" fill="black"/>
<path d="M19.2118 50.46L16.9604 48.5134L20.7127 48.214C20.8628 48.0642 21.0129 47.9145 21.163 47.7648C21.6133 47.0161 21.4632 46.4172 20.8628 45.968C20.4125 45.6685 19.9623 45.8183 19.2118 46.2675L18.0111 46.8664C16.5101 47.7648 15.4595 47.9145 14.2588 47.1659C12.7578 46.2675 12.4577 44.3209 13.6584 42.3744C14.2588 41.3263 14.8591 40.7273 15.6096 40.1284L17.7109 42.2247L14.1087 42.5241C13.9586 42.5241 13.9586 42.6739 13.9586 42.8236C13.5083 43.5723 13.6584 44.0215 14.1087 44.3209C14.709 44.6204 15.1593 44.6204 16.21 44.0215L17.5608 43.2728C18.7615 42.5241 19.8122 42.5241 20.8628 42.9733C22.5138 43.8717 22.5138 46.1177 21.3131 48.0642C20.8628 48.5134 20.2624 49.5616 19.2118 50.46Z" fill="black"/>
<path d="M15.6096 35.0374C14.709 34.2887 14.4088 33.2406 15.3094 32.1925C16.2099 31.1444 17.1105 31.1444 18.1611 31.893C19.0617 32.6417 19.3619 33.6898 18.4613 34.7379C17.7108 35.6363 16.6602 35.7861 15.6096 35.0374ZM24.1648 42.524L24.7652 41.7754L19.512 37.8823L18.1611 38.1818L19.662 33.5401L26.8665 39.0802L27.4668 38.3315L27.767 38.4813L24.465 42.6738L24.1648 42.524Z" fill="black"/>
<path d="M33.1703 30.3956C33.4705 31.5934 33.1703 32.941 31.9696 34.1389C30.4687 35.6362 28.9677 35.3368 27.3167 33.6897L23.7145 30.0961L22.814 31.1442L23.5644 24.8555L26.116 27.4009L27.9171 25.6041L28.0672 25.7539L26.2661 27.5507L29.2679 30.5453C30.7688 32.0426 31.6694 32.1924 32.57 31.294C32.8701 30.9945 33.0202 30.695 33.1703 30.3956Z" fill="black"/>
<path d="M32.1195 21.1124L30.3184 17.8183L33.3202 15.4226L32.1195 21.1124ZM41.125 24.1071C41.2751 25.4547 40.6747 26.8023 39.3239 27.7007C37.3727 29.198 34.5209 29.198 32.8699 26.952C31.2189 24.8558 31.369 22.1606 33.6204 20.3638C34.9712 19.3157 36.4721 19.3157 37.2226 20.3638C38.1231 21.5616 37.9731 23.2087 36.7723 25.305C38.2732 25.4547 39.6241 25.1552 40.5246 24.4066C40.8248 24.4066 40.9749 24.2568 41.125 24.1071ZM32.7198 23.2087C33.6204 24.4066 35.1213 25.1552 36.7723 25.305C36.7723 24.5563 36.4721 23.8076 35.8718 23.059C34.9712 21.8611 33.3202 21.4119 32.7198 21.8611C32.2696 22.1606 32.2696 22.7595 32.7198 23.2087Z" fill="black"/>
<path d="M49.8305 11.0802C49.3802 10.032 49.8305 9.28338 50.731 8.83418C51.6316 8.38498 52.5321 8.83418 52.9824 9.73258C53.4327 10.7807 52.9824 11.5294 52.0818 11.9786C51.0312 12.4278 50.2807 11.9786 49.8305 11.0802Z" fill="black"/>
</g>
<defs>
<clipPath id="clip0">
<rect width="163" height="168" fill="white"/>
</clipPath>
</defs>
</svg>
