{
    "asset" : {
        "generator" : "Khronos glTF Blender I/O v1.5.17",
        "version" : "2.0"
    },
    "scene" : 0,
    "scenes" : [
        {
            "name" : "Scene",
            "nodes" : [
                0,
                1,
                2,
                3,
                4,
                5
            ]
        }
    ],
    "nodes" : [
        {
            "name" : "Light",
            "rotation" : [
                0.16907575726509094,
                0.7558803558349609,
                -0.27217137813568115,
                0.570947527885437
            ],
            "translation" : [
                4.076245307922363,
                5.903861999511719,
                -1.0054539442062378
            ]
        },
        {
            "name" : "Camera",
            "rotation" : [
                0.483536034822464,
                0.33687159419059753,
                -0.20870360732078552,
                0.7804827094078064
            ],
            "translation" : [
                7.358891487121582,
                4.958309173583984,
                6.925790786743164
            ]
        },
        {
            "mesh" : 0,
            "name" : "Plane.1",
            "rotation" : [
                0.7071068286895752,
                0,
                0,
                0.7071067094802856
            ]
        },
        {
            "mesh" : 1,
            "name" : "Plane",
            "rotation" : [
                0.7071068286895752,
                0,
                0,
                0.7071067094802856
            ]
        },
        {
            "mesh" : 2,
            "name" : "Pyramid_haut",
            "rotation" : [
                0.7071068286895752,
                0,
                0,
                0.7071067094802856
            ]
        },
        {
            "mesh" : 3,
            "name" : "Pyramid_bas",
            "rotation" : [
                0.7071068286895752,
                0,
                0,
                0.7071067094802856
            ]
        }
    ],
    "materials" : [
        {
            "doubleSided" : true,
            "name" : "default",
            "pbrMetallicRoughness" : {
                "metallicFactor" : 0
            }
        },
        {
            "alphaMode" : "BLEND",
            "doubleSided" : true,
            "name" : "Mat.5",
            "pbrMetallicRoughness" : {
                "baseColorFactor" : [
                    0.10471999645233154,
                    0.040800001472234726,
                    0.6800000071525574,
                    1
                ]
            }
        },
        {
            "alphaMode" : "BLEND",
            "doubleSided" : true,
            "name" : "Mat.3",
            "pbrMetallicRoughness" : {
                "baseColorFactor" : [
                    1,
                    0.8416666388511658,
                    0.5,
                    1
                ],
                "roughnessFactor" : 0.7642977237701416
            }
        },
        {
            "alphaMode" : "BLEND",
            "doubleSided" : true,
            "name" : "Mat.2",
            "pbrMetallicRoughness" : {
                "baseColorFactor" : [
                    0.5704749822616577,
                    0.949999988079071,
                    0.5034999847412109,
                    1
                ],
                "roughnessFactor" : 0.7642977237701416
            }
        },
        {
            "alphaMode" : "BLEND",
            "doubleSided" : true,
            "name" : "Mat.1",
            "pbrMetallicRoughness" : {
                "baseColorFactor" : [
                    0.6000000238418579,
                    0.8533333539962769,
                    1,
                    1
                ],
                "roughnessFactor" : 0.7642977237701416
            }
        },
        {
            "alphaMode" : "BLEND",
            "doubleSided" : true,
            "name" : "Mat",
            "pbrMetallicRoughness" : {
                "baseColorFactor" : [
                    1,
                    0.6000000238418579,
                    0.7666666507720947,
                    1
                ],
                "roughnessFactor" : 0.7642977237701416
            }
        },
        {
            "alphaMode" : "BLEND",
            "doubleSided" : true,
            "name" : "Mat.4",
            "pbrMetallicRoughness" : {
                "baseColorFactor" : [
                    0.800000011920929,
                    0.800000011920929,
                    0.800000011920929,
                    1
                ],
                "roughnessFactor" : 0.7642977237701416
            }
        }
    ],
    "meshes" : [
        {
            "name" : "Plane.1",
            "primitives" : [
                {
                    "attributes" : {
                        "POSITION" : 0,
                        "NORMAL" : 1,
                        "TEXCOORD_0" : 2
                    },
                    "indices" : 3,
                    "material" : 0
                }
            ]
        },
        {
            "name" : "Plane",
            "primitives" : [
                {
                    "attributes" : {
                        "POSITION" : 4,
                        "NORMAL" : 5,
                        "TEXCOORD_0" : 6
                    },
                    "indices" : 7,
                    "material" : 1
                }
            ]
        },
        {
            "name" : "Pyramid_haut",
            "primitives" : [
                {
                    "attributes" : {
                        "POSITION" : 8,
                        "NORMAL" : 9,
                        "TEXCOORD_0" : 10
                    },
                    "indices" : 11,
                    "material" : 2
                },
                {
                    "attributes" : {
                        "POSITION" : 12,
                        "NORMAL" : 13,
                        "TEXCOORD_0" : 14
                    },
                    "indices" : 15,
                    "material" : 0
                },
                {
                    "attributes" : {
                        "POSITION" : 16,
                        "NORMAL" : 17,
                        "TEXCOORD_0" : 18
                    },
                    "indices" : 19,
                    "material" : 3
                }
            ]
        },
        {
            "name" : "Pyramid_bas",
            "primitives" : [
                {
                    "attributes" : {
                        "POSITION" : 20,
                        "NORMAL" : 21,
                        "TEXCOORD_0" : 22
                    },
                    "indices" : 7,
                    "material" : 0
                },
                {
                    "attributes" : {
                        "POSITION" : 23,
                        "NORMAL" : 24,
                        "TEXCOORD_0" : 25
                    },
                    "indices" : 26,
                    "material" : 2
                },
                {
                    "attributes" : {
                        "POSITION" : 27,
                        "NORMAL" : 28,
                        "TEXCOORD_0" : 29
                    },
                    "indices" : 30,
                    "material" : 4
                },
                {
                    "attributes" : {
                        "POSITION" : 31,
                        "NORMAL" : 32,
                        "TEXCOORD_0" : 33
                    },
                    "indices" : 34,
                    "material" : 5
                },
                {
                    "attributes" : {
                        "POSITION" : 35,
                        "NORMAL" : 36,
                        "TEXCOORD_0" : 37
                    },
                    "indices" : 38,
                    "material" : 6
                }
            ]
        }
    ],
    "accessors" : [
        {
            "bufferView" : 0,
            "componentType" : 5126,
            "count" : 121,
            "max" : [
                95.617431640625,
                -45.332584381103516,
                9.222929954528809
            ],
            "min" : [
                -104.4298095703125,
                -61.087162017822266,
                -90.77706909179688
            ],
            "type" : "VEC3"
        },
        {
            "bufferView" : 1,
            "componentType" : 5126,
            "count" : 121,
            "type" : "VEC3"
        },
        {
            "bufferView" : 2,
            "componentType" : 5126,
            "count" : 121,
            "type" : "VEC2"
        },
        {
            "bufferView" : 3,
            "componentType" : 5123,
            "count" : 600,
            "type" : "SCALAR"
        },
        {
            "bufferView" : 4,
            "componentType" : 5126,
            "count" : 4,
            "max" : [
                120,
                70,
                -0.20526890456676483
            ],
            "min" : [
                -120,
                -70,
                -0.20526890456676483
            ],
            "type" : "VEC3"
        },
        {
            "bufferView" : 5,
            "componentType" : 5126,
            "count" : 4,
            "type" : "VEC3"
        },
        {
            "bufferView" : 6,
            "componentType" : 5126,
            "count" : 4,
            "type" : "VEC2"
        },
        {
            "bufferView" : 7,
            "componentType" : 5123,
            "count" : 6,
            "type" : "SCALAR"
        },
        {
            "bufferView" : 8,
            "componentType" : 5126,
            "count" : 3,
            "max" : [
                7.502876281738281,
                2.730823516845703,
                -21.37220001220703
            ],
            "min" : [
                0,
                -7.502876281738281,
                -32.66383743286133
            ],
            "type" : "VEC3"
        },
        {
            "bufferView" : 9,
            "componentType" : 5126,
            "count" : 3,
            "type" : "VEC3"
        },
        {
            "bufferView" : 10,
            "componentType" : 5126,
            "count" : 3,
            "type" : "VEC2"
        },
        {
            "bufferView" : 11,
            "componentType" : 5123,
            "count" : 3,
            "type" : "SCALAR"
        },
        {
            "bufferView" : 12,
            "componentType" : 5126,
            "count" : 10,
            "max" : [
                7.502876281738281,
                7.502876281738281,
                -21.37220001220703
            ],
            "min" : [
                -7.502876281738281,
                -7.502876281738281,
                -32.66383743286133
            ],
            "type" : "VEC3"
        },
        {
            "bufferView" : 13,
            "componentType" : 5126,
            "count" : 10,
            "type" : "VEC3"
        },
        {
            "bufferView" : 14,
            "componentType" : 5126,
            "count" : 10,
            "type" : "VEC2"
        },
        {
            "bufferView" : 15,
            "componentType" : 5123,
            "count" : 12,
            "type" : "SCALAR"
        },
        {
            "bufferView" : 16,
            "componentType" : 5126,
            "count" : 3,
            "max" : [
                7.502876281738281,
                7.502876281738281,
                -21.37220001220703
            ],
            "min" : [
                -2.730823516845703,
                0,
                -32.66383743286133
            ],
            "type" : "VEC3"
        },
        {
            "bufferView" : 17,
            "componentType" : 5126,
            "count" : 3,
            "type" : "VEC3"
        },
        {
            "bufferView" : 18,
            "componentType" : 5126,
            "count" : 3,
            "type" : "VEC2"
        },
        {
            "bufferView" : 19,
            "componentType" : 5123,
            "count" : 3,
            "type" : "SCALAR"
        },
        {
            "bufferView" : 20,
            "componentType" : 5126,
            "count" : 4,
            "max" : [
                20.490381240844727,
                20.490381240844727,
                -0.6638391613960266
            ],
            "min" : [
                -20.490381240844727,
                -20.490381240844727,
                -0.6638391613960266
            ],
            "type" : "VEC3"
        },
        {
            "bufferView" : 21,
            "componentType" : 5126,
            "count" : 4,
            "type" : "VEC3"
        },
        {
            "bufferView" : 22,
            "componentType" : 5126,
            "count" : 4,
            "type" : "VEC2"
        },
        {
            "bufferView" : 23,
            "componentType" : 5126,
            "count" : 4,
            "max" : [
                5.490381240844727,
                20.490381240844727,
                -0.6638391613960266
            ],
            "min" : [
                -20.490381240844727,
                2.0665132999420166,
                -19.37220001220703
            ],
            "type" : "VEC3"
        },
        {
            "bufferView" : 24,
            "componentType" : 5126,
            "count" : 4,
            "type" : "VEC3"
        },
        {
            "bufferView" : 25,
            "componentType" : 5126,
            "count" : 4,
            "type" : "VEC2"
        },
        {
            "bufferView" : 26,
            "componentType" : 5123,
            "count" : 6,
            "type" : "SCALAR"
        },
        {
            "bufferView" : 27,
            "componentType" : 5126,
            "count" : 4,
            "max" : [
                20.490381240844727,
                20.490381240844727,
                -0.6638391613960266
            ],
            "min" : [
                2.0665132999420166,
                -5.490381240844727,
                -19.37220001220703
            ],
            "type" : "VEC3"
        },
        {
            "bufferView" : 28,
            "componentType" : 5126,
            "count" : 4,
            "type" : "VEC3"
        },
        {
            "bufferView" : 29,
            "componentType" : 5126,
            "count" : 4,
            "type" : "VEC2"
        },
        {
            "bufferView" : 30,
            "componentType" : 5123,
            "count" : 6,
            "type" : "SCALAR"
        },
        {
            "bufferView" : 31,
            "componentType" : 5126,
            "count" : 8,
            "max" : [
                20.490381240844727,
                5.490381240844727,
                -0.6638391613960266
            ],
            "min" : [
                -20.490381240844727,
                -20.490381240844727,
                -19.37220001220703
            ],
            "type" : "VEC3"
        },
        {
            "bufferView" : 32,
            "componentType" : 5126,
            "count" : 8,
            "type" : "VEC3"
        },
        {
            "bufferView" : 33,
            "componentType" : 5126,
            "count" : 8,
            "type" : "VEC2"
        },
        {
            "bufferView" : 34,
            "componentType" : 5123,
            "count" : 12,
            "type" : "SCALAR"
        },
        {
            "bufferView" : 35,
            "componentType" : 5126,
            "count" : 4,
            "max" : [
                7.712332248687744,
                7.712332248687744,
                -19.37220001220703
            ],
            "min" : [
                -7.712332248687744,
                -7.712332248687744,
                -19.37220001220703
            ],
            "type" : "VEC3"
        },
        {
            "bufferView" : 36,
            "componentType" : 5126,
            "count" : 4,
            "type" : "VEC3"
        },
        {
            "bufferView" : 37,
            "componentType" : 5126,
            "count" : 4,
            "type" : "VEC2"
        },
        {
            "bufferView" : 38,
            "componentType" : 5123,
            "count" : 6,
            "type" : "SCALAR"
        }
    ],
    "bufferViews" : [
        {
            "buffer" : 0,
            "byteLength" : 1452,
            "byteOffset" : 0
        },
        {
            "buffer" : 0,
            "byteLength" : 1452,
            "byteOffset" : 1452
        },
        {
            "buffer" : 0,
            "byteLength" : 968,
            "byteOffset" : 2904
        },
        {
            "buffer" : 0,
            "byteLength" : 1200,
            "byteOffset" : 3872
        },
        {
            "buffer" : 0,
            "byteLength" : 48,
            "byteOffset" : 5072
        },
        {
            "buffer" : 0,
            "byteLength" : 48,
            "byteOffset" : 5120
        },
        {
            "buffer" : 0,
            "byteLength" : 32,
            "byteOffset" : 5168
        },
        {
            "buffer" : 0,
            "byteLength" : 12,
            "byteOffset" : 5200
        },
        {
            "buffer" : 0,
            "byteLength" : 36,
            "byteOffset" : 5212
        },
        {
            "buffer" : 0,
            "byteLength" : 36,
            "byteOffset" : 5248
        },
        {
            "buffer" : 0,
            "byteLength" : 24,
            "byteOffset" : 5284
        },
        {
            "buffer" : 0,
            "byteLength" : 6,
            "byteOffset" : 5308
        },
        {
            "buffer" : 0,
            "byteLength" : 120,
            "byteOffset" : 5316
        },
        {
            "buffer" : 0,
            "byteLength" : 120,
            "byteOffset" : 5436
        },
        {
            "buffer" : 0,
            "byteLength" : 80,
            "byteOffset" : 5556
        },
        {
            "buffer" : 0,
            "byteLength" : 24,
            "byteOffset" : 5636
        },
        {
            "buffer" : 0,
            "byteLength" : 36,
            "byteOffset" : 5660
        },
        {
            "buffer" : 0,
            "byteLength" : 36,
            "byteOffset" : 5696
        },
        {
            "buffer" : 0,
            "byteLength" : 24,
            "byteOffset" : 5732
        },
        {
            "buffer" : 0,
            "byteLength" : 6,
            "byteOffset" : 5756
        },
        {
            "buffer" : 0,
            "byteLength" : 48,
            "byteOffset" : 5764
        },
        {
            "buffer" : 0,
            "byteLength" : 48,
            "byteOffset" : 5812
        },
        {
            "buffer" : 0,
            "byteLength" : 32,
            "byteOffset" : 5860
        },
        {
            "buffer" : 0,
            "byteLength" : 48,
            "byteOffset" : 5892
        },
        {
            "buffer" : 0,
            "byteLength" : 48,
            "byteOffset" : 5940
        },
        {
            "buffer" : 0,
            "byteLength" : 32,
            "byteOffset" : 5988
        },
        {
            "buffer" : 0,
            "byteLength" : 12,
            "byteOffset" : 6020
        },
        {
            "buffer" : 0,
            "byteLength" : 48,
            "byteOffset" : 6032
        },
        {
            "buffer" : 0,
            "byteLength" : 48,
            "byteOffset" : 6080
        },
        {
            "buffer" : 0,
            "byteLength" : 32,
            "byteOffset" : 6128
        },
        {
            "buffer" : 0,
            "byteLength" : 12,
            "byteOffset" : 6160
        },
        {
            "buffer" : 0,
            "byteLength" : 96,
            "byteOffset" : 6172
        },
        {
            "buffer" : 0,
            "byteLength" : 96,
            "byteOffset" : 6268
        },
        {
            "buffer" : 0,
            "byteLength" : 64,
            "byteOffset" : 6364
        },
        {
            "buffer" : 0,
            "byteLength" : 24,
            "byteOffset" : 6428
        },
        {
            "buffer" : 0,
            "byteLength" : 48,
            "byteOffset" : 6452
        },
        {
            "buffer" : 0,
            "byteLength" : 48,
            "byteOffset" : 6500
        },
        {
            "buffer" : 0,
            "byteLength" : 32,
            "byteOffset" : 6548
        },
        {
            "buffer" : 0,
            "byteLength" : 12,
            "byteOffset" : 6580
        }
    ],
    "buffers" : [
        {
            "byteLength" : 6592,
            "uri" : "data:application/octet-stream;base64,"
        }
    ]
}
